<svg width="390" height="781" viewBox="0 0 390 781" fill="none" xmlns="http://www.w3.org/2000/svg">
<path d="M0 50C0 22.3858 22.3858 0 50 0H340C367.614 0 390 22.3858 390 50V731C390 758.614 367.614 781 340 781H50C22.3858 781 0 758.614 0 731V50Z" fill="url(#paint0_linear_38_51)"/>
<path d="M0 50C0 22.3858 22.3858 0 50 0H340C367.614 0 390 22.3858 390 50V731C390 758.614 367.614 781 340 781H50C22.3858 781 0 758.614 0 731V50Z" fill="url(#paint1_radial_38_51)"/>
<defs>
<linearGradient id="paint0_linear_38_51" x1="195" y1="18.2904" x2="-114.101" y2="782.484" gradientUnits="userSpaceOnUse">
<stop offset="0.841346" stop-color="#45002D" stop-opacity="0"/>
<stop offset="1" stop-color="#AB006F" stop-opacity="0.34"/>
</linearGradient>
<radialGradient id="paint1_radial_38_51" cx="0" cy="0" r="1" gradientTransform="matrix(12 670 -458.508 295.74 234 210.5)" gradientUnits="userSpaceOnUse">
<stop offset="0.649038" stop-color="#1E21C7" stop-opacity="0"/>
<stop offset="1" stop-color="#009193"/>
</radialGradient>
</defs>
</svg>
