<svg width="390" height="782" viewBox="0 0 390 782" fill="none" xmlns="http://www.w3.org/2000/svg">
<path d="M390 731.5C390 759.114 367.614 781.5 340 781.5L50 781.5C22.3858 781.5 1.95703e-06 759.114 4.37114e-06 731.5L6.39498e-05 50C6.63639e-05 22.3857 22.3858 -3.21379e-05 50.0001 -2.97237e-05L340 -4.37114e-06C367.614 -1.95703e-06 390 22.3858 390 50L390 731.5Z" fill="url(#paint0_linear_48_57)"/>
<path d="M390 731.5C390 759.114 367.614 781.5 340 781.5L50 781.5C22.3858 781.5 1.95703e-06 759.114 4.37114e-06 731.5L6.39498e-05 50C6.63639e-05 22.3857 22.3858 -3.21379e-05 50.0001 -2.97237e-05L340 -4.37114e-06C367.614 -1.95703e-06 390 22.3858 390 50L390 731.5Z" fill="url(#paint1_radial_48_57)"/>
<path d="M390 731.5C390 759.114 367.614 781.5 340 781.5L50 781.5C22.3858 781.5 1.95703e-06 759.114 4.37114e-06 731.5L6.39498e-05 50C6.63639e-05 22.3857 22.3858 -3.21379e-05 50.0001 -2.97237e-05L340 -4.37114e-06C367.614 -1.95703e-06 390 22.3858 390 50L390 731.5Z" fill="url(#paint2_linear_48_57)" fill-opacity="0.2"/>
<path d="M0 51C0 23.3858 22.3858 1 50 1H340C367.614 1 390 23.3858 390 51V732C390 759.614 367.614 782 340 782H50C22.3858 782 0 759.614 0 732V51Z" fill="url(#paint3_linear_48_57)"/>
<path d="M0 51C0 23.3858 22.3858 1 50 1H340C367.614 1 390 23.3858 390 51V732C390 759.614 367.614 782 340 782H50C22.3858 782 0 759.614 0 732V51Z" fill="url(#paint4_radial_48_57)"/>
<defs>
<linearGradient id="paint0_linear_48_57" x1="266" y1="313.5" x2="335.173" y2="41.7904" gradientUnits="userSpaceOnUse">
<stop stop-color="#45002D" stop-opacity="0"/>
<stop offset="1" stop-color="#AB006F" stop-opacity="0.34"/>
</linearGradient>
<radialGradient id="paint1_radial_48_57" cx="0" cy="0" r="1" gradientTransform="matrix(-369 -830.5 780.554 -340.303 369 706)" gradientUnits="userSpaceOnUse">
<stop offset="0.673912" stop-color="#C31E20" stop-opacity="0"/>
<stop offset="1" stop-color="#DA7D03"/>
</radialGradient>
<linearGradient id="paint2_linear_48_57" x1="195" y1="914.5" x2="195" y2="428" gradientUnits="userSpaceOnUse">
<stop stop-opacity="0"/>
<stop offset="1"/>
</linearGradient>
<linearGradient id="paint3_linear_48_57" x1="195" y1="19.2904" x2="-114.101" y2="783.484" gradientUnits="userSpaceOnUse">
<stop offset="0.841346" stop-color="#45002D" stop-opacity="0"/>
<stop offset="1" stop-color="#AB006F" stop-opacity="0.34"/>
</linearGradient>
<radialGradient id="paint4_radial_48_57" cx="0" cy="0" r="1" gradientTransform="matrix(12 670 -458.508 295.74 234 211.5)" gradientUnits="userSpaceOnUse">
<stop offset="0.649038" stop-color="#1E21C7" stop-opacity="0"/>
<stop offset="1" stop-color="#009193"/>
</radialGradient>
</defs>
</svg>
